<svg xmlns="http://www.w3.org/2000/svg" width="28.679" height="23.262" viewBox="0 0 28.679 23.262">
  <g id="Component" transform="translate(0 3.44)">
    <rect id="Rectangle_393" data-name="Rectangle 393" width="15" height="16" transform="translate(0)" fill="none"/>
    <path id="Path_2" data-name="Path 2" d="M47.082,25.262c10.834,0,16.73-8.922,16.73-16.73v-.8a12.951,12.951,0,0,0,2.868-3.027,13.227,13.227,0,0,1-3.346.956,6.2,6.2,0,0,0,2.549-3.187,14.614,14.614,0,0,1-3.665,1.434A5.69,5.69,0,0,0,57.916,2a5.986,5.986,0,0,0-5.9,5.9A3.106,3.106,0,0,0,52.18,9.17,16.473,16.473,0,0,1,40.071,2.956a6.1,6.1,0,0,0-.8,3.027,6.33,6.33,0,0,0,2.549,4.939,5.371,5.371,0,0,1-2.709-.8h0a5.823,5.823,0,0,0,4.78,5.736,4.912,4.912,0,0,1-1.593.159,2.711,2.711,0,0,1-1.115-.159A6.036,6.036,0,0,0,46.763,20a12.03,12.03,0,0,1-7.329,2.549A4.411,4.411,0,0,1,38,22.394a15.039,15.039,0,0,0,9.082,2.868" transform="translate(-38 -5.44)" fill="#fff" fill-rule="evenodd"/>
  </g>
</svg>
